<?xml version="1.0" encoding="UTF-8"?> 
<svg width="400" height="400" viewBox="0 0 400 400" xmlns="http://www.w3.org/2000/svg"> 
  <defs> 
    <radialGradient id="bg" cx="50%" cy="50%" r="50%"> 
      <stop offset="0%" style="stop-color:#1a1a2e"/> 
      <stop offset="100%" style="stop-color:#0f3460"/> 
    </radialGradient> 
  </defs> 
  <circle cx="200" cy="200" r="190" fill="url(#bg)" stroke="#16213e" stroke-width="4"/> 
  <circle cx="200" cy="200" r="15" fill="#e94560"/> 
  <g fill="#0f3460"> 
    <circle cx="200" cy="160" r="8"/> 
    <circle cx="240" cy="200" r="8"/> 
    <circle cx="200" cy="240" r="8"/> 
    <circle cx="160" cy="200" r="8"/> 
    <circle cx="220" cy="170" r="6"/> 
    <circle cx="230" cy="200" r="6"/> 
    <circle cx="220" cy="230" r="6"/> 
    <circle cx="180" cy="230" r="6"/> 
    <circle cx="170" cy="200" r="6"/> 
    <circle cx="180" cy="170" r="6"/> 
  </g> 
  <g stroke="#e94560" stroke-width="2" opacity="0.8"> 
    <line x1="200" y1="200" x2="200" y2="160"/> 
    <line x1="200" y1="200" x2="240" y2="200"/> 
    <line x1="200" y1="200" x2="200" y2="240"/> 
    <line x1="200" y1="200" x2="160" y2="200"/> 
    <line x1="200" y1="200" x2="220" y2="170"/> 
    <line x1="200" y1="200" x2="230" y2="200"/> 
    <line x1="200" y1="200" x2="220" y2="230"/> 
    <line x1="200" y1="200" x2="180" y2="230"/> 
    <line x1="200" y1="200" x2="170" y2="200"/> 
    <line x1="200" y1="200" x2="180" y2="170"/> 
  </g> 
  <g stroke="#f39c12" stroke-width="1" opacity="0.5"> 
    <line x1="200" y1="200" x2="200" y2="50"/> 
    <line x1="200" y1="200" x2="350" y2="200"/> 
    <line x1="200" y1="200" x2="200" y2="350"/> 
    <line x1="200" y1="200" x2="50" y2="200"/> 
  </g> 
  <text x="200" y="370" text-anchor="middle" fill="#ffffff" font-size="16" font-family="Arial, sans-serif" font-weight="bold">NeuralRoulette AI</text> 
</svg>
